<mxfile host="app.diagrams.net" modified="2024-06-06T12:09:44.707Z" agent="Mozilla/5.0 (Windows NT 10.0; Win64; x64) AppleWebKit/537.36 (KHTML, like Gecko) Chrome/125.0.0.0 Safari/537.36 Edg/125.0.0.0" version="24.4.15" etag="iPGlNF5Cet0Bclw4F2Kk" type="github">
  <diagram name="第 1 页" id="9dL3aeNZnrdGKL3NRtZ4">
    <mxGraphModel>
      <root>
        <mxCell id="0" />
        <mxCell id="1" parent="0" />
      </root>
    </mxGraphModel>
  </diagram>
</mxfile>
